<?xml version="1.0" encoding="utf-8"?>
<!-- Generator: Adobe Illustrator 26.1.0, SVG Export Plug-In . SVG Version: 6.00 Build 0)  -->
<svg version="1.1" xmlns="http://www.w3.org/2000/svg" xmlns:xlink="http://www.w3.org/1999/xlink" x="0px" y="0px"
	 viewBox="0 0 160 160" style="enable-background:new 0 0 160 160;" xml:space="preserve">
<style type="text/css">
	.st0{fill:#FFFFFF;}
</style>
<g id="Layer_2">
	<circle cx="79.97" cy="79.95" r="80.05"/>
</g>
<g id="Layer_1">
	<g>
		<path class="st0" d="M24.03,94.43c0.17-0.23,0.37-0.45,0.5-0.7c0.32-0.62,0.66-1.23,0.91-1.88c0.89-2.24,1.75-4.5,2.62-6.76
			c0.88-2.29,1.73-4.58,2.62-6.87c0.97-2.5,1.96-4.99,2.93-7.5c1.02-2.64,2.03-5.29,3.05-7.93c0.19-0.49,0.41-0.96,0.63-1.46
			c-0.87-0.22-1.65-0.55-2.37-1.03c-1.65-1.12-2.31-3.27-1.55-5.12c0.54-1.31,1.47-2.17,2.84-2.46c1.26-0.27,2.45-0.02,3.49,0.81
			c1.07,0.85,1.43,1.98,1.39,3.29c0,0.12-0.04,0.25-0.07,0.44c0.38,0,0.72,0.01,1.07,0c0.52-0.02,1.04-0.01,1.55-0.09
			c1.33-0.22,2.67-0.42,3.97-0.73c2.28-0.54,4.42-1.49,6.59-2.33c2.19-0.85,4.39-1.67,6.69-2.16c1.08-0.23,2.18-0.41,3.27-0.52
			c1.12-0.11,2.26-0.17,3.39-0.14c2.01,0.04,3.96,0.4,5.86,1.09c1.68,0.61,3.24,1.41,4.7,2.44c1.31,0.93,2.51,1.96,3.5,3.23
			c0.15,0.19,0.32,0.37,0.37,0.4c0.41-0.33,0.85-0.64,1.23-1.01c1.25-1.23,2.68-2.22,4.17-3.13c2.63-1.61,5.46-2.75,8.43-3.55
			c1.89-0.51,3.82-0.93,5.74-1.34c1.07-0.23,2.15-0.4,3.23-0.56c0.87-0.13,1.74-0.2,2.61-0.3c1.15-0.12,2.31-0.24,3.46-0.35
			c0.47-0.04,0.94-0.06,1.41-0.08c0.68-0.03,1.37-0.05,2.05-0.07c1.32-0.04,2.65-0.08,3.97-0.1c0.59-0.01,1.18,0.01,1.78,0.03
			c1.14,0.04,2.29,0.05,3.43,0.15c1.43,0.12,2.86,0.32,4.29,0.49c0.18,0.02,0.36,0.08,0.54,0.14c0.35,0.12,0.53,0.35,0.53,0.74
			c0,3.28,0.01,6.57,0.01,9.85c0,5.1-0.01,10.2-0.01,15.3c0.01,10.53,0.04,21.06,0.05,31.6c0,1.53-0.06,3.05-0.05,4.58
			c0,0.63-0.38,0.8-0.91,0.79c-0.48-0.01-0.96-0.1-1.44-0.13c-0.58-0.04-1.15-0.06-1.73-0.07c-1.94-0.05-3.88-0.11-5.81-0.14
			c-0.99-0.01-1.99,0.03-2.98,0.07c-0.83,0.03-1.67,0.07-2.5,0.14c-1.12,0.1-2.24,0.19-3.35,0.36c-1.94,0.3-3.89,0.6-5.81,1
			c-2.26,0.47-4.47,1.17-6.6,2.08c-1.47,0.62-2.93,1.26-4.35,1.97c-1.94,0.96-3.76,2.12-5.44,3.48c-0.86,0.69-1.69,1.43-2.48,2.2
			c-0.69,0.67-1.29,1.44-1.96,2.14c-0.34,0.36-0.76,0.6-1.25,0.72c-0.6,0.15-1.11-0.03-1.52-0.4c-0.62-0.54-1.18-1.15-1.75-1.74
			c-0.49-0.5-0.93-1.05-1.45-1.5c-0.89-0.77-1.81-1.53-2.77-2.2c-2.51-1.76-5.22-3.16-8.07-4.28c-2.41-0.94-4.88-1.71-7.4-2.3
			c-1.3-0.3-2.62-0.51-3.94-0.74c-0.93-0.16-1.86-0.31-2.8-0.42c-0.94-0.11-1.9-0.14-2.84-0.23c-2.59-0.23-5.19-0.24-7.79-0.2
			c-1.41,0.02-2.82,0.12-4.24,0.21c-0.82,0.05-1.64,0.12-2.45,0.21c-0.92,0.1-1.83,0.24-2.75,0.34c-0.8,0.09-1.61,0.18-2.41,0.21
			c-0.19,0.01-0.5-0.14-0.58-0.3c-0.45-0.92-0.87-1.85-1.26-2.79c-0.19-0.46,0.06-0.81,0.54-0.87c1.11-0.15,2.22-0.3,3.33-0.43
			c1.01-0.11,2.03-0.2,3.04-0.29c1.22-0.1,2.43-0.21,3.65-0.28c1.13-0.07,2.26-0.11,3.39-0.15c0.91-0.03,1.82-0.08,2.73-0.06
			c1.26,0.02,2.53,0.06,3.79,0.14c1.3,0.08,2.6,0.18,3.89,0.36c2.17,0.31,4.33,0.65,6.49,1.06c3.01,0.57,5.93,1.46,8.78,2.56
			c2.17,0.84,4.29,1.79,6.26,3.03c1.51,0.95,2.97,1.97,4.45,2.97c0.2,0.14,0.38,0.31,0.62,0.5c0.05-0.13,0.09-0.22,0.1-0.32
			c0.02-0.15,0.01-0.31,0.01-0.46c0-17.22,0-34.44-0.01-51.66c0-1.65-0.59-3.12-1.65-4.4c-1.91-2.3-4.41-3.58-7.29-4.21
			c-1.1-0.24-2.21-0.38-3.34-0.36c-0.78,0.02-1.57-0.08-2.34,0.02c-1.41,0.19-2.85,0.36-4.21,0.76c-2.27,0.66-4.49,1.48-6.72,2.27
			c-2.06,0.73-4.12,1.43-6.29,1.79c-1.03,0.17-2.08,0.31-3.12,0.42c-0.74,0.08-1.48,0.12-2.22,0.14c-0.36,0.01-0.72-0.05-1.15-0.09
			c0.19,0.49,0.36,0.93,0.54,1.37c1.05,2.7,2.1,5.39,3.15,8.09c0.92,2.36,1.82,4.73,2.74,7.09c1.35,3.49,2.7,6.97,4.04,10.46
			c0.55,1.42,1.08,2.84,1.64,4.26c0.09,0.22,0.27,0.4,0.42,0.59c0.07,0.09,0.17,0.17,0.25,0.25c0.42,0.42,0.49,0.7,0.19,1.21
			c-0.62,1.04-1.21,2.11-1.95,3.07c-1.61,2.1-3.65,3.73-6.02,4.91c-1.35,0.67-2.79,1.12-4.29,1.25c-1.21,0.11-2.43,0.2-3.63,0.13
			c-1.82-0.09-3.57-0.59-5.26-1.3c-1.26-0.53-2.45-1.2-3.54-2.03c-1.18-0.89-2.26-1.9-3.17-3.09c-0.71-0.93-1.36-1.89-1.86-2.95
			c-0.06-0.12-0.12-0.24-0.18-0.36C24.03,94.62,24.03,94.53,24.03,94.43z M124.57,107.26c0-0.18,0-0.28,0-0.39
			c0.02-8.53,0.06-17.06,0.07-25.59c0.01-9.45,0-18.89,0-28.34c0-0.07,0.03-0.16-0.01-0.21c-0.06-0.1-0.15-0.23-0.24-0.25
			c-0.47-0.07-0.95-0.12-1.43-0.15c-1.05-0.06-2.1-0.14-3.15-0.14c-2.06,0-4.12,0.04-6.18,0.06c-0.04,0-0.07,0-0.11,0
			c-1.24,0.09-2.48,0.19-3.72,0.28c-0.63,0.05-1.27,0.07-1.89,0.15c-1.11,0.14-2.22,0.31-3.32,0.49c-1.48,0.25-2.97,0.47-4.43,0.8
			c-2.57,0.59-5.09,1.34-7.49,2.45c-2.45,1.13-4.7,2.5-6.41,4.65c-0.96,1.21-1.54,2.56-1.57,4.09c-0.07,2.87-0.08,5.73-0.08,8.6
			c0.01,8.69,0.04,17.38,0.05,26.07c0,2.72-0.04,5.44-0.04,8.17c0,3.14,0.03,6.28,0.05,9.42c0,0.09,0.03,0.17,0.05,0.32
			c0.14-0.09,0.25-0.14,0.34-0.21c0.69-0.54,1.36-1.11,2.08-1.62c2.94-2.08,6.12-3.7,9.47-4.98c3.89-1.49,7.91-2.52,12.04-3.07
			c1.48-0.2,2.97-0.37,4.46-0.5c1.36-0.11,2.73-0.19,4.09-0.21c1.75-0.04,3.51-0.02,5.26,0
			C123.16,107.17,123.84,107.23,124.57,107.26z M49.7,93.43c-3.57-9.25-7.13-18.48-10.71-27.77c-3.54,9.28-7.07,18.51-10.6,27.77
			C35.52,93.43,42.58,93.43,49.7,93.43z"/>
		<path class="st0" d="M81.27,134.25c-0.28-0.05-0.56-0.11-0.84-0.14c-1.7-0.19-3.24-0.8-4.64-1.77c-1.04-0.72-2.02-1.5-3.06-2.22
			c-1.28-0.88-2.74-1.36-4.19-1.86c-1.99-0.68-4.03-1.18-6.08-1.61c-1.06-0.22-2.14-0.36-3.21-0.51c-1.11-0.16-2.22-0.3-3.33-0.42
			c-0.71-0.08-1.43-0.13-2.14-0.14c-2.5-0.04-4.99-0.08-7.49-0.07c-1.32,0.01-2.63,0.12-3.95,0.21c-0.79,0.05-1.59,0.14-2.38,0.21
			c-0.73,0.07-1.47,0.13-2.2,0.22c-0.44,0.06-0.76-0.13-0.96-0.46c-0.55-0.95-1.08-1.92-1.58-2.9c-0.17-0.32,0.04-0.63,0.39-0.7
			c0.33-0.06,0.67-0.11,1-0.14c1.18-0.1,2.36-0.2,3.54-0.29c1.08-0.08,2.15-0.16,3.23-0.21c1.32-0.06,2.64-0.1,3.96-0.14
			c0.87-0.03,1.75-0.07,2.62-0.07c0.87,0,1.75,0.03,2.62,0.07c0.86,0.04,1.72,0.07,2.57,0.14c1.17,0.1,2.33,0.19,3.49,0.36
			c1.64,0.23,3.28,0.47,4.9,0.79c3.09,0.61,6.13,1.45,9.05,2.66c1.6,0.66,3.09,1.53,4.44,2.64c1.08,0.88,2.25,1.61,3.66,1.9
			c1.39,0.28,2.72,0.1,4-0.47c1-0.45,1.84-1.15,2.68-1.83c1.09-0.89,2.3-1.57,3.59-2.13c2.06-0.91,4.21-1.55,6.39-2.07
			c1.54-0.37,3.09-0.68,4.64-0.97c1.26-0.23,2.53-0.41,3.8-0.57c0.91-0.11,1.82-0.17,2.74-0.22c1.85-0.1,3.69-0.22,5.54-0.27
			c1.15-0.03,2.29,0.03,3.44,0.05c0.12,0,0.24,0,0.36,0.01c1.08,0.02,2.15,0.03,3.23,0.08c1.08,0.05,2.16,0.12,3.24,0.21
			c1.26,0.1,2.52,0.23,3.78,0.36c0.25,0.03,0.51,0.08,0.75,0.14c0.48,0.12,0.66,0.43,0.44,0.87c-0.32,0.63-0.67,1.25-1.02,1.87
			c-0.15,0.27-0.33,0.53-0.51,0.79c-0.37,0.53-0.67,0.62-1.3,0.52c-0.59-0.1-1.18-0.15-1.77-0.21c-0.95-0.1-1.91-0.19-2.87-0.28
			c-0.39-0.04-0.77-0.07-1.16-0.08c-2.95-0.03-5.89-0.06-8.84-0.07c-0.83,0-1.67,0.07-2.5,0.14c-1.05,0.09-2.09,0.22-3.14,0.35
			c-1.12,0.14-2.25,0.24-3.37,0.44c-1.6,0.3-3.19,0.61-4.76,1.03c-1.62,0.43-3.21,0.98-4.8,1.52c-1.15,0.39-2.16,1.03-3.1,1.8
			c-1.28,1.04-2.6,2.03-4.14,2.67c-0.97,0.4-1.98,0.66-3.04,0.72c-0.07,0-0.14,0.04-0.22,0.07
			C82.26,134.25,81.77,134.25,81.27,134.25z"/>
		<path class="st0" d="M135.81,110.29c-1.21,2.54-2.42,5.08-3.63,7.62c-0.16,0.33-0.32,0.65-0.5,0.97
			c-0.18,0.34-0.45,0.44-0.84,0.39c-0.69-0.09-1.39-0.15-2.09-0.23c-0.7-0.08-1.39-0.19-2.08-0.27c-0.56-0.06-1.12-0.12-1.68-0.15
			c-1.33-0.08-2.65-0.15-3.98-0.22c-0.43-0.02-0.87-0.06-1.3-0.07c-1.64-0.03-3.29-0.07-4.93-0.07c-1.23,0.01-2.45,0.07-3.68,0.14
			c-1.11,0.07-2.23,0.14-3.33,0.29c-2.1,0.29-4.19,0.63-6.28,0.98c-3.14,0.52-6.2,1.38-9.21,2.42c-0.91,0.31-1.8,0.68-2.72,0.99
			c-0.18,0.06-0.53,0.08-0.6-0.01c-0.16-0.23-0.18-0.54,0.05-0.81c0.6-0.72,1.38-1.21,2.18-1.68c3.11-1.81,6.4-3.19,9.84-4.2
			c1.61-0.47,3.26-0.83,4.91-1.18c1.16-0.25,2.34-0.41,3.52-0.57c0.79-0.11,1.58-0.17,2.38-0.22c1.42-0.09,2.84-0.17,4.27-0.21
			c1.24-0.04,2.48-0.01,3.72-0.01c0.09,0,0.19,0,0.28,0.01c1.26,0.05,2.52,0.07,3.78,0.15c1.11,0.07,2.22,0.17,3.33,0.28
			c1.36,0.14,2.71,0.33,4.07,0.48c0.07,0.01,0.19-0.11,0.24-0.2c0.04-0.09,0.01-0.21,0.01-0.32c0-19.08,0-38.16,0-57.23
			c0-0.86,0.25-1.12,1.1-1.11c0.74,0.01,1.49,0.04,2.23,0.07c0.47,0.02,0.78,0.26,0.94,0.71
			C135.81,74.78,135.81,92.54,135.81,110.29z"/>
		<path class="st0" d="M82.12,26.74c0.27,0.16,0.36,0.43,0.43,0.72c0.6,2.42,1.34,4.79,2.36,7.07c0.52,1.15,1.12,2.25,1.64,3.4
			c0.32,0.72,0.61,1.46,0.82,2.22c0.21,0.78,0.15,1.61-0.26,2.31c-0.48,0.83-1.06,1.61-1.61,2.41c-0.34,0.5-0.8,0.98-0.66,1.63
			c0.09,0.46,0.36,0.9,0.56,1.34c0.18,0.39,0.42,0.76,0.55,1.16c0.26,0.82-0.08,1.51-0.59,2.13c-0.92,1.12-1.78,2.27-2.43,3.58
			c-0.14,0.28-0.23,0.59-0.39,0.86c-0.11,0.17-0.32,0.39-0.47,0.38c-0.18-0.01-0.41-0.2-0.52-0.38c-0.56-0.91-1.05-1.87-1.64-2.76
			c-0.45-0.69-1.01-1.32-1.53-1.96c-0.55-0.67-0.6-1.4-0.25-2.16c0.21-0.46,0.44-0.93,0.72-1.35c0.44-0.66,0.47-1.29,0-1.94
			c-0.52-0.72-1.08-1.41-1.57-2.15c-0.94-1.38-1.06-2.85-0.34-4.37c0.54-1.13,1.11-2.26,1.66-3.39c1.17-2.39,2.08-4.87,2.68-7.46
			c0.07-0.29,0.14-0.59,0.25-0.87c0.06-0.16,0.21-0.29,0.31-0.43C81.93,26.74,82.03,26.74,82.12,26.74z"/>
		<path class="st0" d="M42.69,114.2c1.73,0,3.45-0.02,5.18,0.01c1.04,0.01,2.07,0.07,3.11,0.14c0.99,0.07,1.99,0.15,2.97,0.29
			c1.59,0.23,3.17,0.49,4.76,0.77c2.23,0.38,4.38,1.04,6.5,1.78c2.62,0.92,5.16,2.01,7.51,3.5c0.78,0.49,1.47,1.11,2.18,1.71
			c0.17,0.14,0.3,0.42,0.3,0.64c-0.01,0.44-0.3,0.6-0.77,0.43c-0.77-0.28-1.52-0.58-2.28-0.88c-2.44-0.95-4.94-1.7-7.49-2.27
			c-1.14-0.26-2.28-0.54-3.43-0.76c-1.11-0.21-2.23-0.35-3.35-0.52c-0.83-0.12-1.66-0.25-2.49-0.35c-0.53-0.07-1.07-0.11-1.61-0.15
			c-2.64-0.18-5.28-0.26-7.93-0.21c-1.29,0.03-2.57,0.07-3.86,0.14c-1.18,0.07-2.36,0.16-3.54,0.29c-1.41,0.16-2.82,0.42-4.23,0.54
			c-0.98,0.08-1.04,0.2-1.59-0.73c-0.39-0.65-0.8-1.29-1.11-1.98c-0.42-0.9-0.2-1.21,0.72-1.32c0.93-0.12,1.85-0.24,2.78-0.35
			c0.74-0.09,1.49-0.15,2.24-0.22c1.22-0.12,2.45-0.25,3.67-0.34c0.59-0.04,1.18-0.01,1.77-0.01
			C42.69,114.3,42.69,114.25,42.69,114.2z"/>
		<path class="st0" d="M74.16,73.33c0,0.32,0,0.64,0,0.96c0,0.54-0.33,0.79-0.86,0.62c-0.84-0.27-1.67-0.59-2.52-0.82
			c-1.46-0.39-2.92-0.76-4.4-1.05c-1-0.2-2.03-0.3-3.06-0.36c-1.62-0.09-3.25-0.15-4.88-0.14c-1.16,0.01-2.32,0.17-3.47,0.27
			c-0.26,0.02-0.51,0.05-0.77,0.07c-0.52,0.04-0.86-0.26-0.88-0.81c-0.02-0.62-0.02-1.23,0-1.85c0.01-0.48,0.32-0.71,0.95-0.75
			c1.01-0.07,2.01-0.16,3.02-0.21c1.39-0.07,2.78-0.16,4.17-0.13c1.26,0.03,2.52,0.2,3.78,0.34c2.7,0.29,5.31,1.03,7.88,1.86
			c0.18,0.06,0.35,0.14,0.52,0.21c0.35,0.14,0.5,0.41,0.5,0.77C74.16,72.64,74.16,72.99,74.16,73.33z"/>
		<path class="st0" d="M53.82,78.86c0-0.3,0-0.59,0-0.89c0.01-0.39,0.22-0.64,0.61-0.67c0.95-0.08,1.89-0.16,2.84-0.21
			c1.21-0.06,2.43-0.15,3.64-0.13c1.29,0.03,2.58,0.14,3.87,0.27c2.97,0.3,5.84,1.02,8.66,1.98c0.42,0.14,0.67,0.43,0.69,0.83
			c0.03,0.73,0.01,1.46-0.06,2.18c-0.04,0.44-0.31,0.55-0.73,0.42c-1.58-0.47-3.15-0.97-4.74-1.38c-1-0.26-2.03-0.38-3.05-0.55
			c-2.43-0.41-4.88-0.39-7.33-0.34c-1.22,0.02-2.44,0.16-3.65,0.26c-0.38,0.03-0.73-0.33-0.74-0.84
			C53.81,79.48,53.82,79.17,53.82,78.86z"/>
		<path class="st0" d="M60.6,84.98c0.87,0,1.75-0.05,2.62,0.01c2.47,0.18,4.91,0.55,7.29,1.23c1.04,0.3,2.06,0.63,3.09,0.96
			c0.43,0.14,0.55,0.33,0.55,0.78c0,0.69,0,1.37,0,2.06c0,0.54-0.31,0.75-0.82,0.59c-1.53-0.47-3.05-0.97-4.59-1.38
			c-0.98-0.26-2.01-0.38-3.01-0.55c-1.66-0.27-3.34-0.37-5.02-0.36c-1.05,0-2.1,0-3.15,0c-0.51,0-0.75-0.25-0.75-0.76
			c0-0.63,0-1.26,0-1.88c0-0.41,0.17-0.6,0.58-0.63c1.07-0.07,2.14-0.13,3.21-0.19C60.6,84.9,60.6,84.94,60.6,84.98z"/>
		<path class="st0" d="M114.13,76.84c0.5-0.29,1-0.58,1.5-0.87c0.26-0.16,0.5-0.36,0.78-0.47c0.17-0.07,0.44-0.11,0.57-0.02
			c0.11,0.08,0.15,0.37,0.11,0.54c-0.11,0.46-0.24,0.92-0.42,1.36c-0.74,1.86-1.58,3.68-2.77,5.3c-0.6,0.81-1.22,1.61-1.93,2.32
			c-0.94,0.95-2.02,1.75-3.23,2.33c-1.16,0.55-2.36,1.04-3.54,1.56c-0.06,0.03-0.12,0.06-0.16,0.16c0.55-0.11,1.11-0.2,1.66-0.34
			c0.52-0.13,1.02-0.31,1.54-0.43c0.15-0.03,0.35,0.01,0.47,0.1c0.06,0.05,0.04,0.3-0.03,0.4c-0.4,0.62-0.78,1.25-1.24,1.82
			c-1.64,2.05-3.81,3.46-6,4.84c-1.95,1.22-3.86,2.48-5.75,3.78c-0.32,0.22-0.45,0.73-0.62,1.13c-0.69,1.63-1.35,3.28-2.06,4.91
			c-0.46,1.06-0.95,2.1-1.45,3.14c-0.15,0.32-0.35,0.63-0.73,0.75c-0.4,0.13-0.72-0.02-1-0.24c-0.26-0.21-0.22-0.54-0.13-0.82
			c0.36-1.15,0.7-2.31,1.12-3.44c0.82-2.24,1.61-4.49,2.55-6.67c0.83-1.91,1.84-3.74,2.8-5.6c1.1-2.13,2.38-4.16,3.75-6.13
			c0.99-1.44,2.05-2.83,3.12-4.22c0.91-1.18,1.88-2.33,2.84-3.48c0.63-0.76,1.29-1.49,1.94-2.23c0.48-0.55,0.95-1.12,1.42-1.67
			c0.03,0.03,0.06,0.06,0.09,0.1c-0.57,0.5-1.17,0.97-1.71,1.5c-0.77,0.75-1.52,1.53-2.25,2.32c-1.09,1.18-2.2,2.36-3.24,3.6
			c-1.26,1.5-2.51,3.03-3.67,4.61c-1.11,1.52-2.17,3.09-3.13,4.71c-0.88,1.48-1.59,3.06-2.39,4.58c-0.09,0.17-0.29,0.37-0.46,0.39
			c-0.24,0.03-0.41-0.18-0.45-0.44c-0.07-0.41-0.17-0.82-0.2-1.24c-0.05-0.68-0.07-1.37-0.07-2.05c-0.01-2.12,0.35-4.18,0.92-6.22
			c0.64-2.31,1.72-4.42,2.91-6.47c0.05-0.09,0.11-0.19,0.19-0.24c0.1-0.06,0.25-0.11,0.33-0.07c0.09,0.04,0.18,0.19,0.18,0.29
			c0,0.36-0.04,0.73-0.07,1.09c-0.02,0.27-0.05,0.54-0.01,0.83c0.17-0.56,0.33-1.12,0.53-1.68c0.55-1.53,1.32-2.92,2.38-4.16
			c1.24-1.46,2.73-2.64,4.26-3.78c1.93-1.43,3.86-2.87,5.77-4.34c1.31-1.01,2.61-2.03,3.83-3.14c1.15-1.04,2.22-2.17,3.19-3.4
			c1.18-1.51,2.13-3.14,2.9-4.89c0.06-0.14,0.15-0.27,0.26-0.37c0.27-0.24,0.63-0.17,0.72,0.19c0.13,0.54,0.23,1.09,0.29,1.64
			c0.11,1,0.23,2.01,0.28,3.01c0.04,0.78-0.02,1.56-0.05,2.34c-0.03,0.55-0.06,1.1-0.15,1.64c-0.17,1.06-0.32,2.12-0.59,3.16
			c-0.55,2.1-1.45,4.05-2.77,5.78c-0.79,1.03-1.72,1.92-2.78,2.68c-0.06,0.04-0.11,0.09-0.16,0.14
			C114.09,76.78,114.11,76.81,114.13,76.84z"/>
	</g>
</g>
</svg>
